<svg xmlns="http://www.w3.org/2000/svg" width="721.379" height="247.999"><defs><clipPath id="a"><path d="M0 0h595v187H0V0z"/></clipPath><clipPath id="b"><path d="M-.7.01h595.662v187.22H-.7V.01z"/></clipPath></defs><g clip-path="url(#a)" transform="matrix(1.25 0 0 -1.25 -6.42 238.01)"><g clip-path="url(#b)"><path d="M25.574 99.007c0 2.162-1.785 3.57-4.324 3.57h-2.223v-7.454c.374-.03.876-.064 2.317-.064 2.665 0 4.23 1.504 4.23 3.946M13.136 88.294h2.35v14.284h-2.35v3.165h8.303c4.415 0 7.8-2.537 7.8-6.736 0-4.73-3.35-7.048-8.21-7.048-.97 0-1.567 0-2.004.03v-3.697h2.568V85.13h-8.46v3.164zm35.97 7.143c0 4.29-2.914 7.392-6.893 7.392-4.01 0-6.924-3.07-6.924-7.394 0-4.292 2.912-7.393 6.922-7.393 3.98 0 6.893 3.07 6.893 7.393m-17.482 0c0 6.046 4.385 10.682 10.65 10.682 6.237 0 10.498-4.67 10.498-10.683 0-6.047-4.386-10.682-10.65-10.682-6.237 0-10.497 4.667-10.497 10.682m24.41 7.145H53.84v3.163h8.773v-3.164h-2.727l3.353-10.84 5.106 11.996h1.88l5.107-11.996 3.133 10.84h-2.82v3.163h8.773v-3.164h-2.194L76.68 84.91h-1.976l-5.512 12.686-5.546-12.686h-1.974l-5.64 17.67zm30.27-14.286h2.35v14.285H86.3v3.162h15.383v-5.89H98.3v2.758h-6.11v-5.513h6.238V94.09H92.19v-5.83h6.145v2.758h3.385v-5.89H86.302v3.164zm30.517 11.09c0 2.162-1.786 3.194-4.637 3.194h-1.91v-6.61c.374-.03.878-.06 2.004-.06 2.665 0 4.543 1.314 4.543 3.475m-12.438-11.09h2.35v14.285h-2.35v3.165h7.99c4.73 0 8.115-2.036 8.115-6.235 0-2.663-1.628-4.698-3.885-5.606l3.166-5.608h2.348V85.13h-4.763l-4.135 7.832c-.44-.03-.845-.063-1.255-.063-.656 0-1.25 0-1.69.03v-4.637h2.57V85.13h-8.46v3.164zm19.428 0h2.35v14.286h-2.35v3.162h15.385v-5.89h-3.383v2.758H129.7v-5.513h6.235V94.09H129.7v-5.83h6.14v2.758h3.385v-5.89H123.81v3.164zm26.007 0c5.326 0 8.083 2.884 8.083 7.3 0 4.51-3.196 6.986-8.334 6.986h-1.784V88.292h2.035zm-7.928 0h2.35v14.286h-2.35v3.162h7.802c7.455 0 11.874-3.884 11.874-10.12 0-6.295-4.168-10.493-12.25-10.493h-7.428v3.163zm37.82-.06c2.442 0 4.073 1 4.073 2.975 0 1.91-1.503 2.976-4.168 2.976h-2.693v-5.952h2.788zm-.38 8.77c2.478 0 3.858 1.127 3.858 2.913 0 1.754-1.444 2.726-3.948 2.726h-2.318v-5.64h2.41zm-8.267-8.71h2.35v14.285h-2.35v3.165h8.238c5.05 0 7.52-2.318 7.52-5.42 0-2.38-1.47-3.916-3.51-4.605 2.57-.75 4.107-2.255 4.107-4.823 0-3.415-2.755-5.765-7.768-5.765h-8.586v3.164zm22.31 0h2.6v4.7l-5.86 9.586h-2.068v3.162h7.802v-3.164h-1.818l3.79-6.612 3.76 6.61h-1.944v3.165h7.803v-3.163h-2.07l-5.857-9.586v-4.7h2.6v-3.16h-8.742v3.164zm80.934-34.77l-.383 1.05-32.66-11.895.384-1.05 32.658 11.895zm-.94 2.58l-.705 1.93-32.658-11.895.703-1.932 32.66 11.897zm-34.837-5.926l.643-1.76 28.514 10.39-.64 1.757-28.515-10.387zm-.996 2.74l.385-1.056 28.51 10.388-.382 1.055-28.516-10.386zm-1.19 3.27l.51-1.402 28.515 10.383-.51 1.404-28.52-10.384zm-2.694 7.395l.64-1.756 28.516 10.385-.643 1.758-28.513-10.385zm-1 2.74l.384-1.054 28.514 10.385-.382 1.053-28.515-10.384zm-2.167 5.948l.958-2.636 28.52 10.387-.962 2.637-28.514-10.387zm-1.023 2.812l.254-.702 28.516 10.385-.26.703-28.51-10.386zm-1.196 3.278l.637-1.757 28.52 10.387-.64 1.754-28.515-10.384zm-1 2.743l.385-1.055 28.513 10.385-.385 1.053-28.517-10.383zm31.926 13.905l-.574 1.582-32.66-11.896.576-1.583 32.658 11.9zm-33.922-8.43l32.66 11.896-.384 1.054-32.658-11.898.382-1.052zm10.076-27.65l.256-.7 28.514 10.385-.253.7-28.515-10.386zm236.676 89.275c-1.455 1.18-3.255 1.95-5.232 2.124l-.797 5.224-.84-5.214c-1.973-.158-3.783-.912-5.247-2.08l-3.303 5.598c2.65 1.887 5.894 2.99 9.396 2.975 3.502-.016 6.74-1.148 9.377-3.057l-3.352-5.57zm13.153-20.048l.106 25.014c.015 3.764-3.038 6.843-6.803 6.86l-24.933.107c-3.766.016-6.842-3.036-6.86-6.802l-.106-25.014c-.02-3.766 3.032-6.845 6.8-6.86l24.93-.11c3.77-.012 6.846 3.038 6.863 6.804m-224.533 10.214h1.593v-5.81h-1.593v5.81zm12.125-5.81h-1.592v5.81h1.59l.002-5.81zm10.53 0h-1.59v5.81h1.59v-5.81zm10.534 0h-1.592v5.81h1.592v-5.81zm38.13 0h-4.833v13.345h-2.585v8.073h-8.563l-.476 8.603h-1.376l-.475-8.606h-8.565v-2.37h2.326v-5.702h-2.86v-13.346h-1.785v7.227H297.5v8.417h-8.94v-8.416h-1.594v8.417h-8.938v-8.415h-1.592v8.417h-8.94v-8.416h-1.593v8.417h-8.94v-8.416H251.7v-7.227h-2.04l-2.28 2.37h-15.017l10.256-13.388h88.784c1.224 0 2.218.994 2.218 2.218v8.797h-1.666z" fill="#231f20"/><path d="M245.25 98.35c-3.49 0-6.314 2.83-6.314 6.315 0 3.487 2.825 6.313 6.314 6.313 3.488 0 6.316-2.826 6.316-6.313 0-3.486-2.828-6.314-6.316-6.314m0 25.746c-10.734 0-19.434-8.7-19.434-19.43 0-10.732 8.7-19.43 19.434-19.43 10.732 0 19.432 8.698 19.432 19.43 0 10.73-8.7 19.43-19.432 19.43" fill="#231f20"/><path d="M245.25 105.693c-.568 0-1.03-.46-1.03-1.028 0-.568.462-1.027 1.03-1.027.567 0 1.028.46 1.028 1.027 0 .57-.46 1.028-1.028 1.028M540.48 60.14H253.457v62.713H540.48V60.14zm20.725 79.512v-5.297h-1.463v5.297h-2.022V141h5.51v-1.348h-2.025zm8.908-5.298v4.34l-1.87-2.84h-.04l-1.85 2.81v-4.31h-1.436V141h1.58l1.747-2.81 1.746 2.81h1.575v-6.646h-1.452zM443.69 149.24c-1.304 1.39-3.46 2.087-5.7 1.644-2.24-.434-3.976-1.888-4.663-3.67 1.305-1.386 3.464-2.077 5.7-1.64 2.24.435 3.98 1.892 4.664 3.665m-19.52-16.436c1.748.75 3.14 2.538 3.494 4.792.36 2.254-.414 4.382-1.85 5.635-1.75-.747-3.14-2.536-3.497-4.79-.354-2.253.418-4.38 1.854-5.635m-23.778 7.908c.73 1.756.484 4.01-.836 5.868-1.318 1.87-3.356 2.854-5.26 2.75-.732-1.756-.48-4.01.84-5.87 1.314-1.864 3.352-2.85 5.256-2.746m-24.968 23.034c-.033 1.903-1.166 3.866-3.12 5.045-1.954 1.178-4.22 1.264-5.92.405.033-1.9 1.17-3.865 3.122-5.042 1.955-1.18 4.22-1.264 5.918-.408m37.754-40.265c1.162 1.508 1.506 3.746.715 5.885-.792 2.144-2.502 3.624-4.365 4.02-1.164-1.51-1.505-3.75-.717-5.89.79-2.14 2.508-3.62 4.37-4.015m18.714 28.34c-1.305 1.386-3.463 2.08-5.7 1.643-2.242-.44-3.976-1.892-4.663-3.67 1.307-1.387 3.464-2.08 5.7-1.644 2.24.438 3.978 1.89 4.665 3.67m-51.655 26.913c-1.83-.53-3.426-2.137-4.053-4.327-.628-2.196-.12-4.404 1.152-5.822 1.825.53 3.423 2.137 4.054 4.33.626 2.195.117 4.404-1.155 5.82m39.554-14.236c-1.75-.75-3.143-2.537-3.496-4.79-.357-2.253.414-4.386 1.85-5.636 1.75.75 3.143 2.537 3.496 4.787.36 2.26-.417 4.39-1.85 5.64m-9.048 17.9c-1.9.123-3.95-.845-5.286-2.695-1.336-1.85-1.61-4.1-.894-5.864 1.9-.12 3.95.846 5.283 2.697 1.335 1.85 1.61 4.1.895 5.864m-16.785-7.224c-.59-1.805-.167-4.034 1.29-5.786 1.457-1.76 3.567-2.585 5.455-2.335.593 1.81.17 4.035-1.286 5.79-1.46 1.756-3.57 2.583-5.46 2.33m-3.657-36.845c-1.75-.747-3.143-2.535-3.498-4.787-.354-2.255.414-4.386 1.85-5.637 1.75.748 3.144 2.538 3.5 4.79.355 2.25-.417 4.384-1.852 5.635m-3.316 33.54c-1.75-.748-3.144-2.538-3.498-4.79-.36-2.253.412-4.382 1.846-5.638 1.752.752 3.144 2.54 3.5 4.793.355 2.256-.418 4.384-1.85 5.634m-18.356-42.867c1.793.635 3.298 2.333 3.796 4.557.502 2.23-.136 4.4-1.49 5.744-1.793-.637-3.296-2.333-3.795-4.56-.497-2.225.14-4.4 1.49-5.74m-7.467 16.974c.376-1.866 1.84-3.595 3.972-4.402 2.135-.813 4.378-.49 5.9.656-.375 1.865-1.842 3.595-3.975 4.402-2.133.81-4.377.493-5.897-.656m53.48 23c0-2.136-1.98-3.868-4.423-3.868-2.442 0-4.424 1.732-4.424 3.868 0 2.14 1.982 3.87 4.424 3.87s4.423-1.73 4.423-3.87m-35.39-15.294c0-2.14-1.98-3.87-4.424-3.87-2.445 0-4.426 1.73-4.426 3.87 0 2.134 1.98 3.868 4.424 3.868 2.442 0 4.424-1.734 4.424-3.868m11.798-4.054c0-2.136-1.98-3.87-4.423-3.87-2.444 0-4.424 1.735-4.424 3.87s1.98 3.87 4.424 3.87c2.442 0 4.423-1.735 4.423-3.87m-8.492-16.907c-.867-1.955-3.38-2.735-5.615-1.742-2.232.995-3.337 3.383-2.468 5.336.868 1.952 3.383 2.73 5.612 1.74 2.233-.993 3.34-3.38 2.47-5.332m32.073 19.9c-.868-1.954-3.382-2.733-5.614-1.74-2.234.993-3.34 3.38-2.47 5.333.87 1.95 3.382 2.73 5.614 1.74 2.233-.993 3.338-3.378 2.47-5.334m22.795 8.857c1.452-1.567 1.178-4.184-.614-5.847-1.79-1.66-4.42-1.73-5.872-.163-1.455 1.566-1.18 4.185.614 5.845 1.794 1.66 4.424 1.734 5.875.166m-18.433-19.904c1.454-1.566 1.177-4.185-.617-5.842-1.79-1.66-4.422-1.734-5.874-.167-1.45 1.568-1.176 4.185.616 5.844 1.79 1.66 4.42 1.737 5.873.167M398.93 161.12c-.682-2.026-3.11-3.038-5.425-2.26-2.318.78-3.64 3.05-2.963 5.078.68 2.024 3.11 3.038 5.426 2.26 2.316-.778 3.64-3.05 2.963-5.076m38.42-21.392c1.003-1.888.07-4.35-2.09-5.496-2.155-1.146-4.718-.546-5.72 1.338-1.008 1.887-.072 4.347 2.085 5.495 2.157 1.147 4.72.547 5.724-1.338" fill="#231f20"/><path d="M410.567 110.612c-1.833.183-3.777.277-5.798.277-1.946 0-3.824-.093-5.594-.26 1.68 5.007 2.795 12.5 2.744 15.34-.064 3.536.592 7.876-3.74 10.63-3.06 1.946-8.87 5.067-15.906 5.28-.833-1.275-1.49-2.347-1.984-2.02-.508.332-.065 1.072.577 2.022-2.514-.068-5.173-.492-7.886-1.542-1.642-.635-2.29.903.46 1.63.69.215 2.93.814 4.375 1.014-.653 1.27-1.182 2.285-.68 2.538.69.348 1.188-.962 1.91-2.397 5.342.518 13.84.013 21.107-5.54 2.756-2.167 2.516.498 2.516 2.2 0 2.86.404 5.828-.615 7.69-1.49 2.348-3.923 3.256-6.022 4.288-3.093 1.525-5.67 2.734-8.62 3.433-3.604.856-5.95 3.285-7.682 6.276-1.572-.24-2.888-.506-2.98.096-.1.67.955.8 2.283.98-.82 1.346-1.415 2.62-1.72 3.578-.437 1.505.668 2.146 1.366.368.617-1.576 2.193-6.107 6.226-8.512.4 1.316.72 2.355 1.246 2.192.69-.213.253-1.352-.197-2.754.78-.375 1.646-.65 2.58-.938 4.585-1.4 8.44-3.415 11.71-5.285 1.375-.786 2.273-1.607 2.273.954 0 2.56.198 16.537.198 18.11 0 1.82 1.576 1.98 1.576.03 0-1.967.59-25.77.59-27.347 0-1.572-.106-3.64 1.77-1.42 1.927 2.283 13.02 11.49 18.268 15.95-.658 1.287-1.2 2.313-.69 2.574.585.295 1.038-.62 1.608-1.785.553.48.956.922 1.29 1.174 1.857 1.394 2.99.588.94-1.03-1.426-1.123-11.57-9.796-12.75-10.977-.906-.76-.004-.97 2.95-.774 2.146.144 7.283-.088 10.928-.485.418 1.38.748 2.498 1.29 2.33.643-.2.305-1.203-.105-2.474.853-.115 1.564-.267 2.064-.37 1.395-.284 1.153-1.902-.59-1.377-2.977.895-14.61 1.17-18.11.392-2.76-1.377-7.683-7.03-7.683-10.234 0-6.386 2.206-20.053 4.512-23.824" fill="#231f20"/><path d="M556.542 80.595c-1.52-6.155-7.744-9.91-13.902-8.388-6.153 1.522-9.91 7.745-8.388 13.9 1.523 6.153 7.747 9.91 13.9 8.388 6.16-1.522 9.913-7.747 8.39-13.9" fill="#fff"/><path d="M551.183 74.586c-1.925-1.293-4.29-1.954-6.776-1.706-2.484.247-4.674 1.36-6.307 3.008-2.092 2.112-3.266 5.108-2.95 8.292.316 3.185 2.058 5.89 4.528 7.55 1.925 1.292 4.29 1.952 6.775 1.704 2.48-.246 4.673-1.357 6.307-3.004 2.092-2.115 3.266-5.11 2.948-8.294-.316-3.186-2.055-5.89-4.526-7.55m1.804 18.148l1.075 10.794c.13 1.29-.812 2.44-2.102 2.568l-8.412.84c-1.287.126-2.44-.817-2.566-2.106l-1.076-10.796c-3.582-1.826-6.196-5.378-6.622-9.668-.43-4.29 1.436-8.288 4.588-10.787l-1.07-10.795c-.13-1.29.813-2.437 2.1-2.567l8.41-.838c1.292-.13 2.44.813 2.57 2.106l1.073 10.793c3.584 1.825 6.197 5.38 6.624 9.67.426 4.29-1.436 8.287-4.59 10.783" fill="#231f20"/><path d="M552.53 88.113c-.205.02-.397-.028-.562-.12l-6.358-3.65-3.323 3.605h-.003c-.155.162-.358.276-.597.3-.51.05-.975-.327-1.025-.843-.025-.276.07-.538.247-.726l-.004-.006 3.834-4.154h.003c.15-.158.353-.274.592-.297.204-.02.397.028.56.123v-.002l7.007 4.02v.003c.254.145.438.407.466.72.052.514-.325.976-.84 1.026" fill="#231f20"/><path d="M494.366 132.1c0-4.76-4.87-8.617-10.882-8.617-6.01 0-10.886 3.858-10.886 8.617 0 4.76 4.876 8.62 10.886 8.62 6.01 0 10.883-3.86 10.883-8.62" fill="#fff"/><path d="M483.395 135.11c-.632.92-1.473 1.49-2.533 1.706-1.117.226-2.13.033-3.045-.57-.913-.608-1.483-1.468-1.71-2.575-.224-1.11-.035-2.125.567-3.04.607-.91 1.463-1.48 2.583-1.707 1.06-.216 2.057-.024 3 .57.933.602 1.52 1.46 1.744 2.57.23 1.11.026 2.125-.604 3.047m-12.844-5.052c-.154 1.562-.07 3.15.26 4.767.45 2.227 1.295 4.234 2.524 6.012 1.23 1.77 2.736 3.245 4.5 4.413 1.766 1.173 3.706 1.976 5.83 2.416 2.113.44 4.288.43 6.508-.024 2.99-.605 5.553-1.877 7.692-3.815 2.136-1.94 3.67-4.234 4.593-6.902.72-.884 1.424-1.475 2.096-1.773.386-.18.757-.313 1.106-.384.16.022.4.08.71.176.31.096.612.217.9.368.346.138.73.326 1.14.556.295.152.587.253.86.302.273.055.547.05.823-.007.283-.055.607-.203.984-.44.37-.23.614-.455.73-.66.11-.205.185-.418.185-.632.007-.207-.055-.41-.196-.59l-.37-1.035c-.01-.05.003-.13.026-.237.07-.23.22-.366.473-.418.153-.032.357-.054.61-.084.26-.024.526-.042.784-.044.32-.005.624-.046.93-.11l2.666-2.036 1.637.296 1.784-2.5c.087-.126.2-.222.337-.3.09-.077.215-.125.37-.157.15-.03.362-.02.63.03.226.062.48.142.765.242.286.098.562.176.836.225.332.087.67.18 1 .27l1.58-1.19c.093-.074.207-.12.362-.153.31-.06.56-.09.78-.08.166.07.494.17.964.313.485.146.95.3 1.41.468.566.203 1.168.42 1.795.663l1.16-1.658c.05-.01.12-.055.208-.122.187-.143.353-.234.504-.266.202-.042.426.017.67.183.122.082.216.166.29.262l2.28 1.115 1.33-1.614c.045-.065.104-.126.2-.2.094-.068.157-.137.196-.196.043-.064.086-.097.136-.108l.336.092c.122.078.328.178.615.305.29.123.576.24.856.333l1.04.428 4.438-7.703-8.228-3.937-36.594 7.442c-.908-1.344-1.976-2.537-3.215-3.575-1.24-1.038-2.593-1.866-4.07-2.493-1.464-.62-3.027-1.01-4.66-1.183-1.644-.17-3.3-.083-4.97.253-2.883.587-5.38 1.802-7.49 3.618-2.103 1.83-3.63 4.02-4.587 6.59-.55 1.438-.906 2.923-1.06 4.487" fill="#231f20"/><path d="M514.143 110.016s6.24 9.444 21.34 9.515c15.098.073 22.038-10.3 22.038-10.3s-42.537-.5-43.376.787" fill="#fff"/><path d="M560.818 104.668c3.306 0 5.985-2.558 5.985-5.72 0-3.157-2.68-5.717-5.985-5.717-3.3 0-5.98 2.56-5.98 5.718 0 3.163 2.68 5.72 5.98 5.72m-46.675 0c3.303 0 5.977-2.558 5.977-5.72 0-3.157-2.674-5.717-5.977-5.717-3.305 0-5.98 2.56-5.98 5.718 0 3.163 2.675 5.72 5.98 5.72" fill="#231f20"/><path d="M517.957 111.09c2.71 4.38 9.476 6.56 12.012 6.82 0-2.266-.257-4.556-.257-6.82h-11.757zm14.574 7.264c5.42.753 12.74.153 18.126-4.363v-3.21c-6.04 0-12.084.235-18.124.235v7.34zm-25.655-20.666c.31 12.635 16.26 9.746 14.594-.855h31.97c-.785 10.297 14.536 13.473 15.034 0 6.846.217 5.82 3.44 5.552 6.478-1.99-.08-2.214 7.406-15.846 8.11-19.12 16.508-40.51 7.086-50.487-2.78-2.364-1.374-3.02-2.342-3.877-3.417-.952-.146-1.098-.4-1.143-.503-.835-4.402.17-7.06 4.2-7.032m-153.187 57.834c-2.67 2.108-3.372 3.234-3.793 4.074-.422.846-.113 1.772-.113 1.772.06.185.275.337.472.337h.69c.196 0 .357.16.357.356v6.17c0 .195-.163.357-.36.357h-12.35c-.197 0-.357-.162-.357-.358v-6.17c0-.195.16-.354.356-.354h6.45c.2 0 .355-.162.355-.36v-.827c0-.198-.157-.36-.357-.36h-4.908c-.196 0-.4-.156-.45-.344 0 0-.467-1.765-1.87-2.885-1.407-1.126-5.623-3.372-5.623-7.587V125.67s0-4.14 4.915-4.14h16.224c.195 0 .514-.012.71-.03 0 0 3.302-.254 3.302 5.085v22.964c0 .193-.048.507-.1.7 0 0-.887 3.164-3.556 5.27" fill="#231f20"/><path d="M340.723 128.504l-3.838.02c-1.31.004-2.377-1.052-2.384-2.363-.004-1.31 1.05-2.375 2.364-2.38l3.86-.02v4.745zm4.653.02l-3.835-.02v-4.744l3.86.018c1.313.007 2.37 1.073 2.36 2.383-.005 1.313-1.07 2.37-2.383 2.364m3.013-.927l2.43-2.97c.83-1.012 2.325-1.16 3.338-.33 1.013.83 1.165 2.323.334 3.336l-2.446 2.986-3.656-3.024zm-2.98 3.575l2.46-2.943 3.655 3.02-2.472 2.96c-.84 1.008-2.336 1.143-3.344.3-1.006-.84-1.14-2.332-.3-3.34" fill="#fff"/><path d="M314.332-12.14h3.263l1.737-6.47 1.753 6.47h3.263v-10.445h-1.96v9.298l-2.518-9.298h-1.082l-2.516 9.298v-9.298h-1.94v10.445zm15.795-2.828l-1.198-3.643h2.376l-1.18 3.64zm-1.097 2.828h2.18l3.402-10.445h-2.02l-.794 2.452h-3.338l-.793-2.452h-2.02l3.384 10.445zm6.913 0h2.054v-4.622l3.768 4.622h2.26l-3.265-4.04 3.505-6.405h-2.005l-2.692 4.93-1.57-1.946v-2.986h-2.054v10.445zm9.697 0h7v-1.816h-4.948v-2.3h3.017v-1.55h-3.02v-2.976h4.95v-1.803h-7.002v10.445zm15.29-1.81v-2.834h1.68c.627 0 1.15.175 1.57.52.28.227.417.556.417.984 0 .396-.15.714-.443.962-.298.247-.793.367-1.49.367h-1.733zm-2.075 1.81h3.304c1.176 0 2.055-.098 2.637-.287.58-.19 1.05-.524 1.407-1.002.358-.47.536-1.054.536-1.74 0-.535-.102-1.025-.306-1.476-.16-.34-.4-.644-.728-.906-.325-.265-.65-.463-.98-.595-.554-.228-1.21-.34-1.967-.34h-1.83v-4.097h-2.076v10.445zm11.485-1.823v-2.812h1.65c.597 0 1.11.17 1.534.51.277.23.416.545.416.95 0 .387-.154.71-.464.965-.31.26-.806.387-1.488.387h-1.647zm-2.06 1.823h2.82c1.516 0 2.564-.116 3.143-.343.582-.225 1.033-.603 1.357-1.125.323-.525.485-1.124.485-1.8 0-.625-.146-1.142-.44-1.55-.29-.407-.794-.754-1.513-1.046l1.878-4.582h-2.035l-1.752 4.198h-1.882v-4.198h-2.06v10.446zm13.6-1.586c-.706 0-1.288-.282-1.746-.845-.46-.565-.69-1.5-.69-2.8 0-1.28.234-2.198.7-2.76.466-.56 1.063-.84 1.79-.84.694 0 1.27.28 1.73.838.46.558.688 1.47.688 2.74 0 1.42-.28 2.42-.84 2.996-.432.45-.976.668-1.63.668m-.205 1.79c.982 0 1.773-.162 2.374-.492.79-.428 1.39-1.043 1.807-1.842.414-.8.618-1.852.618-3.155 0-1.765-.414-3.1-1.248-4.007-.833-.906-1.934-1.36-3.303-1.36-1.384 0-2.504.464-3.356 1.385-.854.92-1.28 2.267-1.28 4.04 0 1.063.172 2.02.52 2.867.185.468.47.906.855 1.308.384.407.834.718 1.345.934.513.214 1.068.322 1.67.322m8.635-1.964v-6.853h1.422c.504 0 .954.134 1.35.406.39.27.695.627.91 1.07.31.628.464 1.314.464 2.054 0 1.013-.297 1.818-.883 2.42-.588.603-1.342.905-2.26.905h-1.005zm-2.082 1.762h3.798c.9 0 1.708-.22 2.417-.66.71-.438 1.25-1.058 1.622-1.863.37-.804.557-1.675.557-2.61 0-.93-.16-1.775-.48-2.524-.322-.747-.734-1.336-1.233-1.762-.36-.304-.827-.552-1.4-.74-.574-.19-1.18-.284-1.816-.284h-3.462v10.445zm10.01 0h2.06v-6.378c0-.794.185-1.392.554-1.787.37-.396.87-.594 1.503-.594.404 0 .764.08 1.078.24.315.16.567.42.755.78.188.36.283.814.283 1.363v6.378h2.07v-6.675c0-1.275-.35-2.255-1.047-2.94-.696-.69-1.715-1.036-3.058-1.036-.772 0-1.493.124-2.163.37-.354.132-.65.306-.888.52-.327.297-.6.68-.82 1.15-.218.466-.327 1.09-.327 1.88v6.73zm18.4-7.454c-.148-.588-.33-1.054-.554-1.4-.358-.56-.824-1-1.394-1.317-.572-.32-1.233-.483-1.984-.483-.802 0-1.565.204-2.296.605-.726.405-1.28 1.007-1.658 1.806-.378.802-.567 1.746-.567 2.832 0 1.134.193 2.134.576 3.004.385.87.944 1.522 1.676 1.958.733.433 1.503.65 2.315.65.595 0 1.18-.13 1.748-.395.573-.266 1.045-.64 1.42-1.12.26-.34.465-.782.62-1.34l-1.91-.545c-.14.564-.382.992-.73 1.28-.347.29-.764.432-1.25.432-.73 0-1.297-.353-1.703-1.056-.403-.704-.605-1.63-.605-2.765 0-.718.094-1.35.28-1.892.187-.54.443-.94.77-1.197.33-.256.684-.385 1.066-.385.576 0 1.088.21 1.54.623.316.285.567.7.75 1.24l1.89-.536zm.936 7.454h7.918v-1.797h-2.94v-8.648h-2.05v8.648h-2.928v1.797zm10.7-7.522c.348-.535.687-.904 1.02-1.113.336-.21.73-.314 1.185-.314.548 0 .976.137 1.28.406.304.273.457.592.457.96 0 .322-.12.606-.36.853-.248.245-.797.48-1.646.71-1.162.304-1.992.68-2.492 1.12-.625.554-.935 1.24-.935 2.06 0 .88.31 1.606.935 2.18.623.577 1.48.864 2.565.864.62 0 1.173-.103 1.657-.31.485-.207.895-.472 1.232-.795.218-.215.436-.51.656-.88l-1.72-.704c-.292.414-.59.715-.896.907-.304.19-.643.287-1.018.287-.457 0-.826-.13-1.102-.387-.275-.256-.412-.568-.412-.933 0-.29.113-.54.34-.75.223-.208.784-.423 1.68-.646.897-.226 1.577-.485 2.038-.78.463-.296.807-.68 1.037-1.154.23-.473.347-.96.347-1.463 0-.526-.15-1.055-.444-1.587-.296-.534-.736-.943-1.318-1.23-.584-.287-1.25-.432-2.008-.432-.714 0-1.335.123-1.86.36-.525.24-.972.563-1.335.967-.237.26-.476.62-.717 1.084l1.836.717zm13.54 0c.344-.535.686-.904 1.02-1.113.334-.21.73-.314 1.184-.314.546 0 .972.137 1.277.406.305.273.458.592.458.96 0 .322-.122.606-.36.853-.25.245-.798.48-1.648.71-1.16.304-1.99.68-2.49 1.12-.625.554-.938 1.24-.938 2.06 0 .88.31 1.606.935 2.18.622.577 1.48.864 2.565.864.62 0 1.173-.103 1.658-.31.485-.207.895-.472 1.233-.795.22-.215.438-.51.656-.88l-1.72-.704c-.29.414-.59.715-.895.907-.304.19-.642.287-1.014.287-.463 0-.828-.13-1.104-.387-.274-.256-.412-.568-.412-.933 0-.29.114-.54.34-.75.225-.208.785-.423 1.68-.646.897-.226 1.576-.485 2.038-.78.463-.296.81-.68 1.04-1.154.23-.473.343-.96.343-1.463 0-.526-.147-1.055-.445-1.587-.295-.534-.734-.943-1.317-1.23-.582-.287-1.25-.432-2.007-.432-.712 0-1.333.123-1.86.36-.526.24-.97.563-1.334.967-.237.26-.475.62-.717 1.084l1.837.717zm7.53 7.522h3.263l1.735-6.47 1.752 6.47h3.263v-10.445h-1.96v9.298l-2.516-9.298H453.8l-2.515 9.298v-9.298h-1.94v10.445zm15.79-2.828l-1.195-3.643h2.378l-1.18 3.64zm-1.092 2.828h2.18l3.4-10.445h-2.02l-.794 2.452h-3.338l-.792-2.452h-2.02l3.383 10.445zm8.98-1.823v-2.812h1.645c.6 0 1.113.17 1.535.51.278.23.417.545.417.95 0 .387-.156.71-.465.965-.31.26-.806.387-1.49.387h-1.644zm-2.06 1.823h2.816c1.518 0 2.565-.116 3.146-.343.58-.225 1.032-.603 1.356-1.125.323-.525.485-1.124.485-1.8 0-.625-.147-1.142-.436-1.55-.29-.407-.795-.754-1.516-1.046l1.877-4.582h-2.032l-1.752 4.198h-1.88v-4.198h-2.062v10.446zm8.884 0h7.918v-1.797h-2.942v-8.648h-2.05v8.648h-2.926v1.797zM323.016 43.536c.19-1.478.973-2.74 2.205-3.558 2.355-1.56 6.15-1.27 8.54 2.343l8.585 12.95c2.16 3.26 4.95 3.51 6.75 2.316 1.89-1.252 2.84-4.227.47-7.807l-11.237-16.95-.52.342-3.27-3.756c-2.743 1.047-5.745.35-7.217-1.873l-3.9-5.88 1.817-1.206-3.36-5.07c-.364-.546-.14-1.332.494-1.752.637-.422 1.447-.322 1.81.227l3.36 5.068 4.606-3.05-3.36-5.067c-.363-.55-.142-1.335.494-1.756.635-.42 1.445-.32 1.81.228l3.357 5.07 1.925-1.278 3.9 5.884c1.487 2.247.935 5.32-1.15 7.44l2.284 4.39-.95.627 11.238 16.953c3.193 4.818 1.82 9.355-1.186 11.347-2.86 1.896-7.315 1.46-10.295-3.036l-8.583-12.95c-1.475-2.224-3.674-2.496-4.997-1.622-.426.283-.96.818-1.08 1.752-.124.953.223 2.072.994 3.238l12.637 19.063-2.13 1.416-12.638-19.064c-1.117-1.688-1.6-3.406-1.4-4.974m137.15 14.082c.046 4.418 3.664 7.965 8.083 7.92 4.42-.043 7.964-3.664 7.92-8.08-.047-4.42-3.663-7.964-8.08-7.92-4.42.045-7.97 3.66-7.925 8.08m-23.81-29.71c4.423.444 10.177 1.848 18.56 6.585 8.09 4.57 12.295 4.1 21.9 1.992 8.706-1.91 12.02 3.267 13.09 6.51.832 2.505 1.146 6.986 1.254 10.264l57.253.41c5.625-.06 2.327-2.43 8.143-2.49.1 0 .215.01.32.013-.502-.277-.862-.788-.868-1.407-.01-.908.72-1.653 1.627-1.663.91-.008 1.653.723 1.664 1.63.006.646-.37 1.195-.913 1.47 1.02.01 2.096-.01 3.196-.055-.524-.27-.896-.798-.902-1.43-.01-.907.72-1.65 1.63-1.66.907-.012 1.654.72 1.66 1.627.007.587-.31 1.082-.77 1.378.907-.057 1.81-.123 2.68-.208-.553-.26-.946-.807-.955-1.46-.01-.91.72-1.654 1.63-1.663.91-.006 1.653.723 1.665 1.63.003.587-.317 1.082-.78 1.38 2.913-.02 4.92.184 4.978 5.83.06 5.824-1.98 5.743-4.892 5.765.485.28.83.783.837 1.386.01.91-.72 1.657-1.632 1.664-.905.01-1.65-.72-1.66-1.63-.005-.675.398-1.262.98-1.52-.916-.067-1.867-.12-2.836-.147.52.27.893.794.898 1.425.014.908-.718 1.653-1.626 1.664-.91.007-1.657-.72-1.662-1.63-.01-.65.372-1.2.913-1.477-1.072-.004-2.147.012-3.184.07.514.272.885.794.89 1.42.008.91-.723 1.652-1.63 1.662-.907.01-1.653-.72-1.662-1.63-.005-.548.28-1.014.688-1.317-5.888.058-2.793-2.052-8.204-1.995l-57.402 1.662c-.06 3.207-.303 7.31-1.032 9.682-1.01 3.264-4.215 8.505-12.958 6.77-9.645-1.913-13.86-2.296-21.857 2.433-8.286 4.9-14.01 6.422-18.423 6.958-5.855.71-13.82-1.296-18.048-7.372-4.31-6.197-4.947-12.842-5.042-22.348-.097-9.505.405-16.16 4.59-22.444 4.108-6.162 12.03-8.323 17.898-7.73" fill="#231f20"/><path d="M460.11 57.592c0 4.464 3.622 8.084 8.087 8.084s8.085-3.62 8.085-8.084c0-4.466-3.62-8.086-8.085-8.086-4.465 0-8.086 3.62-8.086 8.086M323.784 39.79h-36.377v24.582h36.377V39.79z" fill="#fff"/><path d="M311.235 41.52c-5.848 0-10.588 4.742-10.588 10.59 0 5.845 4.74 10.588 10.588 10.588 5.85 0 10.592-4.74 10.594-10.59 0-5.846-4.747-10.59-10.596-10.59m-14.12 19.06c0-.777-.632-1.408-1.41-1.408h-4.24c-.778 0-1.412.63-1.412 1.41v.706c0 .78.634 1.412 1.413 1.412h4.238c.78 0 1.41-.632 1.41-1.412v-.707zm24.712 5.65h-2.118c0 .78-.633 1.413-1.414 1.413h-1.41c-.782 0-1.414-.63-1.414-1.41h-13.415c-1.413 0-1.413 3.528-2.824 3.528h-7.765c-1.413 0-1.413-3.528-2.825-3.528h-2.117c-1.948 0-3.53-1.584-3.53-3.532V41.52c0-1.95 1.582-3.532 3.53-3.53h35.304c1.95 0 3.53 1.58 3.53 3.532v21.176c0 1.948-1.58 3.53-3.53 3.53" fill="#231f20"/><path d="M311.235 59.876c-4.288 0-7.766-3.48-7.766-7.767 0-4.29 3.476-7.767 7.764-7.767 4.29 0 7.767 3.478 7.767 7.765 0 4.287-3.477 7.766-7.766 7.766m77.152 12.702c-.807 1.074-2.33 1.29-3.402.487l-10.42-7.816h8.097l5.24 3.93c1.075.804 1.29 2.326.487 3.4m9.13-28.647l.708.874h-13.83l-7.728-9.563s-6.242-7.725-4.136-13.677c16.667 12.067 22.91 19.793 24.99 22.368m-28.28 7.863v2.252h-2.127v2.002h2.128v2.126h2.128v-2.126h2.128v-2.002h-2.128v-2.252h-2.126zm31.546 3.19c0-.99-.803-1.792-1.794-1.792-.988 0-1.79.805-1.79 1.794 0 .99.802 1.794 1.79 1.794.99 0 1.794-.804 1.794-1.794m5.96.044c0 4.297-3.498 7.792-7.795 7.792h-32.19c-4.297 0-7.792-3.496-7.792-7.793 0-4.298 3.495-7.792 7.792-7.792h32.19c4.298 0 7.795 3.494 7.795 7.792" fill="#231f20"/><path d="M276.174 31.53l-24.074-.02-.046 47.277 24.075.02.043-47.277z" fill="#fff"/><path d="M275.42 39.186c0-.744-.606-1.354-1.356-1.354h-19.9c-.75 0-1.358.61-1.358 1.354v37.33c0 .748.607 1.354 1.357 1.354h19.9c.75 0 1.358-.606 1.358-1.355v-37.33zm-11.307-7.665c-1.3 0-2.356 1.057-2.356 2.358 0 1.3 1.055 2.352 2.356 2.352 1.3 0 2.356-1.053 2.356-2.353 0-1.3-1.058-2.356-2.358-2.356m9.95 48.615h-19.9c-1.997 0-3.62-1.623-3.62-3.62V33.54c0-2 1.623-3.618 3.62-3.618h19.9c2 0 3.622 1.617 3.622 3.618v42.977c0 1.996-1.623 3.62-3.62 3.62" fill="#231f20"/><path d="M494.366 77.74H306.72v33.326h187.646V77.74z" fill="#fff"/><path d="M363.195 101.887h-3.017v-5.1h3.017c1.13 0 2.08.317 2.868.95.498.412.743.962.743 1.705 0 .705-.268 1.264-.832 1.74-.55.46-1.473.71-2.78.705" fill="#231f20"/><path d="M488.02 85.124h-3.58v2.204c-.717-.73-1.445-1.287-2.19-1.668-1.18-.62-2.452-.937-3.804-.937h-.01c-1.397 0-2.735.35-4.006 1.03-1.287.693-2.33 1.788-3.13 3.27-.817 1.49-1.21 3.51-1.21 6.04 0 2.64.413 4.77 1.27 6.396.84 1.615 2.01 2.815 3.494 3.586 1.47.767 3.048 1.15 4.717 1.15 1.537 0 2.887-.297 4.07-.9 1.163-.592 2.116-1.41 2.835-2.445.466-.67.852-1.58 1.166-2.74l.047-.165-3.515-1.2-.055.174c-.357 1.08-.813 1.873-1.344 2.395-.78.742-1.777 1.115-3.03 1.115-1.495 0-2.693-.488-3.65-1.474-.93-.958-1.43-2.758-1.43-5.405 0-3.17.814-5.362 2.346-6.335.87-.553 1.605-.735 2.49-.737.666.002 1.315.137 1.973.41.646.276 1.168.61 1.557 1.006.402.395.694.792.895 1.186.174.342.336.81.472 1.38h-5.267v3.412h8.893V85.124zm-25.232 0h-4.245l-8.274 13.688V85.124h-4.366V105.8h4.514l8.047-13.167V105.8h4.32V85.124zm-25.33 0h-4.376v8.788h-7.29v-8.788h-4.33V105.8h4.33v-8.02h7.29v8.02h4.375V85.124zm-23.016 16.818h-5.72V85.124h-4.35v16.818h-5.693v3.858h15.76v-3.858zm-27.194-7.624v-9.194h-4.386v9.194l-5.762 11.214-.135.268h4.573l3.523-6.83 3.476 6.83h4.588l-5.875-11.482zm-15.953-9.194h-4.36l-3.406 8.164h-3.353v-8.164H355.8V105.8h5.667c2.96-.002 5.003-.217 6.18-.68 1.163-.45 2.077-1.216 2.724-2.263.65-1.046.974-2.25.973-3.6.002-1.24-.292-2.284-.884-3.11-.573-.803-1.53-1.476-2.857-2.034l3.693-8.99zm-28.736 0h-4.14l-6.237 20.438-.07.238h4.273l4.097-13.52 4.152 13.52h4.213l-6.29-20.676zm-16.324 16.778h-9.63v-4.107h5.872v-3.38h-5.872v-5.423h9.63v-3.868h-13.993V105.8h13.992v-3.898zm-25.54-28.196h200.09v43.79h-200.09v-43.79z" fill="#231f20"/></g></g></svg>