<svg xmlns="http://www.w3.org/2000/svg" width="741.587" height="472.835"><defs><clipPath id="a"><path d="M0 0h595v387H0V0z"/></clipPath><clipPath id="b"><path d="M0 0h595v387H0V0z"/></clipPath><clipPath id="c"><path d="M0 0h595.553v387.385H0V0z"/></clipPath><clipPath id="d"><path d="M-.633-.6h596.478v388.312H-.633V-.6z"/></clipPath><clipPath id="e"><path d="M0 0h595v387H0V0z"/></clipPath><clipPath id="f"><path d="M0 0h595.553v387.385H0V0z"/></clipPath><clipPath id="g"><path d="M-83.863 443.443h778.556V-106.92H-83.863v550.363z"/></clipPath><clipPath id="h"><path d="M-.633-.6h596.478v388.312H-.633V-.6z"/></clipPath></defs><g clip-path="url(#a)" transform="matrix(1.25 0 0 -1.25 -.34 462.83)"><g clip-path="url(#d)" fill="#231f20"><path d="M89.94 98.735l-.633 1.737L35.342 80.82l.632-1.74L89.94 98.736zM88.387 103l-1.166 3.19L33.26 86.532l1.162-3.192L88.387 103zM30.825 93.208l1.06-2.908 47.117 17.166-1.06 2.903-47.117-17.162zM29.177 97.733l.635-1.74 47.115 17.162-.633 1.74-47.117-17.162zM27.208 103.14l.847-2.32 47.115 17.16-.843 2.318-47.12-17.16zM22.757 115.357l1.057-2.902 47.12 17.16-1.06 2.903-47.117-17.16zM21.107 119.884l.632-1.74 47.12 17.16-.635 1.74-47.118-17.16zM17.525 129.71l1.585-4.35 47.12 17.16-1.587 4.353-47.118-17.162zM15.832 134.357l.424-1.16 47.117 17.162-.427 1.16-47.114-17.163zM13.86 139.777l1.053-2.904 47.12 17.162-1.056 2.9-47.118-17.158zM12.206 144.307l.636-1.743 47.118 17.16-.635 1.74-47.12-17.157zM64.962 167.284l-.95 2.612-53.97-19.654.955-2.616 53.965 19.658zM8.91 153.354l53.966 19.656-.636 1.743-53.965-19.66.635-1.74zM25.558 107.668l.42-1.16 47.118 17.163-.418 1.157-47.12-17.16z"/></g><g clip-path="url(#h)"><path d="M416.64 255.177c-2.405 1.952-5.382 3.223-8.645 3.51l-1.315 8.632-1.39-8.618c-3.267-.262-6.255-1.506-8.675-3.44l-5.46 9.253c4.383 3.115 9.745 4.94 15.53 4.915 5.79-.025 11.134-1.896 15.493-5.05l-5.538-9.203zm21.732-33.123l.175 41.332c.027 6.222-5.013 11.307-11.24 11.335l-41.194.178c-6.224.026-11.31-5.015-11.338-11.237l-.176-41.33c-.028-6.226 5.013-11.31 11.24-11.338l41.194-.177c6.226-.025 11.312 5.016 11.338 11.24M67.352 238.93h2.632v-9.605h-2.632v9.604zm20.034-9.605h-2.63v9.604h2.63v-9.605zm17.403 0h-2.632v9.604h2.63v-9.605zm17.402 0h-2.63v9.604h2.63v-9.605zm63.01 0H177.212v22.05h-4.272v13.342h-14.148l-.788 14.215h-2.27l-.784-14.215H140.8V260.8h3.842v-9.424h-4.724v-22.05h-2.954v11.94h-8.7v13.91h-14.775v-13.91h-2.63v13.91H96.087v-13.91h-2.63v13.91H78.685v-13.91h-2.63v13.91H61.28v-13.91h-8.7v-11.94h-3.367l-3.77 3.917H20.633L37.58 211.12H184.285c2.025 0 3.667 1.643 3.667 3.668V229.325H185.2z" fill="#231f20"/><path d="M41.927 172.807c-5.765 0-10.435 4.672-10.435 10.434s4.67 10.43 10.435 10.43c5.762 0 10.434-4.668 10.434-10.43 0-5.76-4.67-10.433-10.433-10.433m0 42.537c-17.737 0-32.113-14.374-32.113-32.103 0-17.732 14.376-32.105 32.113-32.105 17.734 0 32.11 14.373 32.11 32.106 0 17.73-14.376 32.104-32.11 32.104" fill="#231f20"/><path d="M41.927 184.94c-.938 0-1.7-.76-1.7-1.7 0-.938.762-1.698 1.7-1.698s1.7.76 1.7 1.7c0 .937-.762 1.697-1.7 1.697M529.76 109.67H55.488v103.623H529.76V109.67zM564.007 241.05v-8.754h-2.417v8.755h-3.342v2.227h9.103v-2.226h-3.343zM578.725 232.296v7.17l-3.09-4.692h-.063l-3.06 4.646v-7.124h-2.37v10.98h2.607l2.886-4.642 2.887 4.643h2.604v-10.98h-2.402zM369.827 256.89c-2.156 2.3-5.72 3.45-9.42 2.718-3.7-.717-6.568-3.12-7.704-6.06 2.156-2.292 5.722-3.436 9.418-2.716 3.702.72 6.577 3.126 7.707 6.06M337.572 229.734c2.89 1.24 5.19 4.195 5.774 7.918.592 3.726-.684 7.24-3.057 9.31-2.893-1.236-5.19-4.194-5.78-7.912-.584-3.727.69-7.245 3.062-9.316M298.28 242.802c1.21 2.902.8 6.624-1.38 9.697-2.178 3.08-5.546 4.712-8.69 4.54-1.21-2.9-.792-6.623 1.383-9.7 2.175-3.08 5.544-4.71 8.686-4.538M257.027 280.864c-.057 3.143-1.93 6.387-5.157 8.336-3.23 1.946-6.97 2.088-9.782.67.053-3.143 1.933-6.386 5.158-8.332 3.232-1.947 6.972-2.088 9.78-.674M319.41 214.333c1.922 2.49 2.488 6.19 1.18 9.726-1.307 3.542-4.134 5.986-7.214 6.638-1.922-2.493-2.487-6.195-1.183-9.73 1.307-3.538 4.14-5.983 7.217-6.635M350.335 261.158c-2.155 2.292-5.722 3.442-9.417 2.717-3.704-.724-6.572-3.127-7.707-6.065 2.158-2.29 5.723-3.437 9.418-2.716 3.7.725 6.573 3.126 7.707 6.064M264.984 305.626c-3.025-.875-5.665-3.53-6.698-7.15-1.04-3.628-.2-7.276 1.903-9.618 3.02.874 5.66 3.53 6.697 7.155 1.04 3.625.198 7.275-1.903 9.613M330.343 282.106c-2.894-1.237-5.196-4.193-5.78-7.913-.59-3.725.685-7.247 3.06-9.314 2.89 1.236 5.19 4.19 5.775 7.91.593 3.733-.686 7.25-3.055 9.316M315.39 311.683c-3.14.202-6.53-1.398-8.732-4.453-2.208-3.06-2.66-6.774-1.48-9.69 3.14-.203 6.53 1.396 8.73 4.453 2.208 3.06 2.66 6.774 1.48 9.69M287.654 299.747c-.975-2.986-.277-6.667 2.13-9.56 2.408-2.907 5.894-4.273 9.016-3.86.98 2.992.28 6.668-2.127 9.568-2.41 2.9-5.895 4.27-9.02 3.852M281.613 238.866c-2.894-1.236-5.195-4.19-5.782-7.91-.584-3.727.686-7.246 3.06-9.316 2.89 1.237 5.192 4.193 5.783 7.917.583 3.718-.69 7.243-3.06 9.31M276.13 294.284c-2.893-1.237-5.193-4.193-5.78-7.915-.593-3.724.687-7.24 3.058-9.317 2.892 1.243 5.19 4.197 5.78 7.92.588 3.726-.69 7.244-3.06 9.31M245.8 223.455c2.96 1.048 5.448 3.854 6.27 7.53.83 3.682-.225 7.272-2.46 9.488-2.963-1.05-5.447-3.852-6.272-7.532-.824-3.678.226-7.27 2.462-9.485M233.46 251.502c.62-3.082 3.04-5.94 6.564-7.273 3.528-1.345 7.234-.814 9.746 1.082-.62 3.083-3.04 5.94-6.566 7.276-3.525 1.34-7.232.812-9.744-1.086M321.83 289.506c0-3.53-3.272-6.394-7.308-6.394-4.038 0-7.312 2.862-7.312 6.394 0 3.534 3.274 6.395 7.312 6.395 4.036 0 7.308-2.86 7.308-6.394M263.353 264.235c0-3.534-3.274-6.398-7.31-6.398-4.038 0-7.312 2.864-7.312 6.398 0 3.526 3.275 6.394 7.313 6.394 4.036 0 7.31-2.87 7.31-6.395M282.845 257.535c0-3.528-3.27-6.392-7.31-6.392-4.037 0-7.31 2.864-7.31 6.392 0 3.53 3.273 6.394 7.31 6.394 4.04 0 7.31-2.865 7.31-6.395M268.815 229.6c-1.435-3.228-5.586-4.518-9.28-2.876-3.687 1.64-5.515 5.583-4.077 8.81 1.43 3.23 5.588 4.515 9.274 2.876 3.687-1.64 5.52-5.585 4.083-8.81M321.81 262.483c-1.437-3.228-5.59-4.516-9.28-2.874-3.69 1.64-5.515 5.584-4.08 8.813 1.437 3.222 5.588 4.51 9.278 2.874 3.687-1.643 5.516-5.584 4.08-8.814M359.474 277.117c2.402-2.591 1.947-6.916-1.013-9.66-2.96-2.744-7.31-2.86-9.708-.27-2.403 2.588-1.95 6.914 1.016 9.657 2.963 2.742 7.31 2.865 9.706.273M329.018 244.23c2.406-2.59 1.947-6.916-1.016-9.654-2.96-2.744-7.308-2.865-9.708-.277-2.398 2.59-1.943 6.915 1.017 9.656 2.964 2.743 7.31 2.866 9.708.273M295.867 276.525c-1.128-3.35-5.14-5.022-8.965-3.736-3.83 1.285-6.02 5.04-4.896 8.388 1.125 3.344 5.136 5.018 8.966 3.734 3.827-1.285 6.015-5.04 4.895-8.387M359.35 241.177c1.658-3.119.115-7.184-3.45-9.08-3.564-1.894-7.797-.902-9.457 2.21-1.66 3.12-.116 7.184 3.447 9.08 3.567 1.896 7.8.907 9.46-2.21" fill="#231f20"/><path d="M315.092 193.066c-3.024.302-6.238.457-9.576.457-3.213 0-6.318-.148-9.244-.428 2.776 8.274 4.62 20.652 4.535 25.347-.107 5.844.98 13.014-6.18 17.563-5.056 3.217-14.658 8.375-26.28 8.724-1.383-2.104-2.465-3.876-3.283-3.338-.84.552-.106 1.775.955 3.344-4.156-.11-8.552-.814-13.032-2.548-2.716-1.05-3.786 1.49.762 2.69 1.132.357 4.834 1.346 7.224 1.677-1.08 2.096-1.955 3.776-1.122 4.195 1.137.576 1.962-1.59 3.157-3.963 8.824.856 22.87.024 34.872-9.15 4.554-3.584 4.157.823 4.157 3.632 0 4.725.667 9.628-1.016 12.704-2.463 3.88-6.484 5.38-9.954 7.088-5.112 2.52-9.367 4.516-14.244 5.672-5.954 1.414-9.834 5.426-12.693 10.37-2.598-.397-4.773-.838-4.925.157-.167 1.107 1.577 1.325 3.772 1.623-1.358 2.223-2.34 4.328-2.84 5.912-.726 2.485 1.102 3.547 2.254.605 1.02-2.604 3.623-10.09 10.287-14.065.663 2.176 1.192 3.89 2.062 3.624 1.138-.353.416-2.237-.325-4.552 1.29-.62 2.72-1.078 4.266-1.55 7.573-2.31 13.94-5.642 19.346-8.733 2.273-1.3 3.753-2.655 3.753 1.578 0 4.226.328 27.32.328 29.92 0 3.007 2.603 3.272 2.603.048 0-3.25.976-42.58.976-45.184 0-2.598-.174-6.017 2.925-2.346 3.183 3.77 21.516 18.984 30.187 26.353-1.088 2.128-1.987 3.822-1.142 4.253.966.49 1.715-1.022 2.656-2.947.912.788 1.58 1.522 2.132 1.935 3.065 2.304 4.94.972 1.55-1.7-2.354-1.858-19.116-16.186-21.066-18.138-1.5-1.257-.008-1.6 4.874-1.277 3.546.237 12.036-.146 18.06-.803.69 2.282 1.233 4.13 2.13 3.853 1.062-.33.502-1.99-.173-4.092 1.408-.19 2.583-.438 3.41-.608 2.307-.472 1.908-3.144-.973-2.277-4.92 1.48-24.145 1.937-29.93.65-4.557-2.278-12.692-11.62-12.692-16.91 0-10.552 3.647-33.137 7.454-39.367" fill="#231f20"/><path d="M556.305 143.47c-2.516-10.173-12.8-16.375-22.972-13.86-10.172 2.514-16.38 12.796-13.862 22.966 2.515 10.166 12.8 16.373 22.972 13.86 10.172-2.517 16.38-12.8 13.863-22.967" fill="#fff"/><path d="M547.447 133.54c-3.183-2.14-7.092-3.23-11.197-2.82-4.103.41-7.722 2.247-10.42 4.97-3.46 3.49-5.4 8.44-4.873 13.702.52 5.262 3.396 9.732 7.475 12.475 3.183 2.135 7.092 3.225 11.196 2.815 4.103-.407 7.723-2.243 10.422-4.965 3.46-3.492 5.398-8.44 4.875-13.703-.523-5.262-3.4-9.733-7.478-12.474m2.982 29.986l1.773 17.838c.21 2.13-1.345 4.03-3.478 4.24l-13.898 1.385c-2.13.21-4.032-1.35-4.242-3.478l-1.773-17.837c-5.922-3.018-10.24-8.888-10.944-15.975-.708-7.092 2.372-13.696 7.583-17.822l-1.77-17.833c-.216-2.135 1.343-4.03 3.473-4.244l13.897-1.382c2.133-.21 4.03 1.343 4.246 3.478l1.772 17.835c5.92 3.02 10.24 8.89 10.944 15.977.706 7.09-2.373 13.695-7.583 17.82" fill="#231f20"/><path d="M549.67 155.89c-.335.033-.654-.046-.926-.2v.002l-10.503-6.03-5.492 5.955h-.007c-.25.267-.587.456-.983.494-.85.084-1.61-.537-1.695-1.39-.045-.456.118-.888.408-1.2l-.006-.005 6.336-6.864.003.003c.25-.266.59-.457.982-.495.338-.033.654.046.925.202v-.004L550.285 153l.002.005c.418.24.722.672.772 1.19.086.85-.54 1.61-1.39 1.696" fill="#231f20"/><path d="M453.568 228.57c0-7.863-8.052-14.237-17.985-14.237s-17.985 6.374-17.985 14.238c0 7.867 8.052 14.24 17.985 14.24s17.985-6.373 17.985-14.24" fill="#fff"/><path d="M435.437 233.544c-1.045 1.52-2.438 2.46-4.187 2.82-1.845.374-3.52.053-5.03-.944-1.512-1.002-2.454-2.423-2.83-4.252-.37-1.837-.056-3.516.94-5.028 1-1.504 2.418-2.444 4.268-2.82 1.747-.356 3.398-.04 4.952.944 1.548.993 2.516 2.41 2.888 4.246.375 1.83.04 3.512-1 5.034m-21.226-8.346c-.256 2.58-.118 5.204.424 7.876.75 3.68 2.144 6.995 4.172 9.932 2.034 2.923 4.52 5.36 7.436 7.294 2.92 1.94 6.126 3.262 9.636 3.99 3.493.73 7.086.712 10.753-.038 4.94-1.002 9.178-3.104 12.71-6.303 3.53-3.203 6.064-6.998 7.593-11.407 1.185-1.46 2.35-2.436 3.462-2.93.636-.296 1.25-.516 1.828-.632.27.037.66.13 1.17.29.515.158 1.012.357 1.49.608.573.23 1.207.54 1.886.92.488.252.97.417 1.417.5.45.09.903.08 1.36-.013.467-.092 1.003-.337 1.624-.724.612-.384 1.02-.754 1.212-1.095.182-.338.306-.69.306-1.044.013-.342-.093-.674-.328-.976l-.61-1.71c-.016-.08.008-.214.047-.392.116-.38.365-.605.782-.69.254-.05.59-.088 1.012-.138.432-.038.865-.068 1.295-.073.526-.007 1.03-.075 1.535-.18l4.406-3.365 2.71.49 2.943-4.13c.143-.21.327-.37.554-.495.15-.13.355-.21.61-.262.247-.05.602-.033 1.045.05.373.103.79.233 1.263.4.47.162.927.29 1.38.37.55.148 1.107.3 1.656.45l2.61-1.967c.15-.124.343-.2.593-.253.513-.097.93-.146 1.29-.13.28.113.816.284 1.596.52.796.24 1.565.497 2.324.772.94.333 1.93.694 2.966 1.093l1.926-2.74c.077-.018.193-.092.34-.202.308-.235.584-.385.833-.44.333-.066.7.032 1.107.305.198.133.352.274.474.43l3.773 1.84 2.196-2.664c.072-.106.175-.21.332-.33.153-.114.255-.226.324-.323.068-.106.14-.16.224-.178l.552.152c.2.13.544.296 1.018.505.482.202.95.4 1.415.55l1.72.707 7.335-12.73-13.603-6.503-60.462 12.296c-1.497-2.22-3.266-4.19-5.315-5.906-2.048-1.714-4.286-3.083-6.724-4.12-2.422-1.02-5.004-1.67-7.706-1.953-2.712-.276-5.45-.136-8.207.42-4.766.97-8.892 2.98-12.374 5.98-3.48 3.022-6.002 6.64-7.584 10.89-.91 2.37-1.497 4.825-1.754 7.41" fill="#231f20"/><path d="M486.24 192.082s10.314 15.604 35.263 15.72c24.947.12 36.416-17.02 36.416-17.02s-70.29-.83-71.68 1.3" fill="#fff"/><path d="M563.37 183.245c5.457 0 9.885-4.227 9.885-9.454 0-5.213-4.428-9.444-9.886-9.444-5.457 0-9.885 4.23-9.885 9.445 0 5.228 4.428 9.455 9.884 9.455M486.24 183.245c5.46 0 9.882-4.227 9.882-9.454 0-5.213-4.422-9.444-9.882-9.444-5.457 0-9.882 4.23-9.882 9.445 0 5.228 4.425 9.455 9.882 9.455" fill="#231f20"/><path d="M492.544 193.855c4.48 7.238 15.66 10.84 19.85 11.272 0-3.747-.422-7.53-.422-11.272h-19.428zm24.084 12.003c8.948 1.242 21.047.255 29.95-7.208v-5.306c-9.984 0-19.97.387-29.95.387v12.128zm-42.4-34.148c.518 20.88 26.875 16.105 24.118-1.41h52.828c-1.293 17.01 24.02 22.26 24.844 0 11.31.357 9.614 5.68 9.175 10.702-3.29-.132-3.658 12.232-26.185 13.4-31.588 27.275-66.94 11.707-83.423-4.593-3.906-2.273-4.992-3.874-6.407-5.65-1.575-.242-1.812-.66-1.885-.833-1.384-7.27.28-11.66 6.936-11.617M221.106 267.27c-4.412 3.486-5.573 5.345-6.267 6.736-.7 1.394-.188 2.923-.188 2.923.1.306.453.557.777.557h1.142c.323 0 .59.264.59.59v10.19c0 .324-.267.59-.59.59H196.16c-.325 0-.59-.266-.59-.59v-10.192c0-.324.265-.588.59-.588h10.657c.33 0 .59-.267.59-.592v-1.37c0-.326-.26-.59-.59-.59h-8.11c-.322 0-.657-.257-.74-.572 0 0-.774-2.914-3.092-4.767-2.324-1.86-9.292-5.573-9.292-12.534v-39.12s0-6.838 8.126-6.838h26.803c.324 0 .854-.02 1.18-.047 0 0 5.452-.42 5.452 8.402v37.94c0 .325-.076.845-.162 1.157 0 0-1.465 5.233-5.877 8.713" fill="#231f20"/><path d="M199.682 222.628l-6.338.03c-2.165.01-3.93-1.735-3.94-3.9-.01-2.164 1.737-3.927 3.902-3.938l6.376-.03v7.838zM207.375 222.66l-6.338-.032v-7.84l6.377.032c2.166.01 3.91 1.773 3.9 3.938-.01 2.166-1.774 3.91-3.94 3.9M212.356 221.13l4.013-4.905c1.37-1.674 3.84-1.92 5.516-.548 1.675 1.37 1.922 3.838.55 5.514l-4.04 4.934-6.04-4.994zM207.43 227.038l4.063-4.865 6.042 4.995-4.088 4.894c-1.387 1.66-3.858 1.885-5.522.496-1.662-1.388-1.883-3.857-.496-5.52" fill="#fff"/><path d="M156.077-9.76h5.394l2.87-10.693 2.897 10.692h5.39V-27.02h-3.237v15.362l-4.16-15.362h-1.79l-4.158 15.362v-15.362h-3.205V-9.76zM182.175-14.43l-1.98-6.024h3.93l-1.95 6.023zm-1.81 4.67h3.602l5.62-17.257h-3.34l-1.31 4.05h-5.517l-1.307-4.05h-3.34l5.593 17.256zM191.786-9.76h3.396V-17.4l6.225 7.637h3.73l-5.39-6.676 5.792-10.582h-3.314l-4.447 8.145-2.598-3.216v-4.928h-3.396V-9.76zM207.805-9.76h11.575v-3h-8.18v-3.802h4.987v-2.56H211.2v-4.918h8.18v-2.978h-11.575V-9.76zM233.076-12.75v-4.68h2.775c1.04 0 1.904.285 2.596.857.46.376.688.917.688 1.624 0 .655-.244 1.184-.733 1.59-.49.407-1.308.61-2.458.61h-2.866zm-3.43 2.99h5.46c1.948 0 3.402-.16 4.36-.475.96-.315 1.735-.867 2.325-1.652.592-.786.887-1.746.887-2.883 0-.88-.17-1.69-.508-2.435-.265-.564-.665-1.064-1.202-1.5-.538-.436-1.078-.764-1.62-.98-.917-.378-2-.565-3.248-.565h-3.024v-6.768h-3.43V-9.76zM248.627-12.772v-4.647h2.72c.992 0 1.838.282 2.537.847.46.376.69.898.69 1.567-.002.64-.257 1.172-.768 1.597-.513.425-1.332.638-2.46.638h-2.72zm-3.407 3.01h4.66c2.504 0 4.236-.186 5.195-.564.96-.375 1.705-.995 2.24-1.86.533-.865.8-1.857.8-2.978 0-1.03-.24-1.88-.722-2.554-.482-.673-1.316-1.25-2.504-1.732l3.103-7.567h-3.364l-2.895 6.936h-3.108v-6.937h-3.407V-9.76zM267.695-12.377c-1.166 0-2.13-.467-2.888-1.4-.76-.93-1.14-2.472-1.14-4.624 0-2.113.386-3.632 1.156-4.557.772-.925 1.758-1.387 2.962-1.387 1.142 0 2.094.46 2.854 1.38.758.922 1.14 2.432 1.14 4.53 0 2.345-.464 3.996-1.39 4.952-.713.737-1.612 1.105-2.695 1.105m-.34 2.954c1.626 0 2.935-.27 3.927-.812 1.3-.707 2.294-1.722 2.98-3.046.683-1.323 1.025-3.06 1.025-5.21 0-2.918-.688-5.125-2.064-6.62-1.377-1.498-3.197-2.246-5.46-2.246-2.287 0-4.135.76-5.546 2.285-1.41 1.52-2.115 3.744-2.115 6.67 0 1.76.286 3.34.858 4.737.308.773.78 1.496 1.415 2.165.636.67 1.377 1.182 2.223 1.54.846.357 1.766.535 2.758.535M281.628-12.67v-11.325h2.348c.834 0 1.577.224 2.227.67.65.45 1.153 1.037 1.507 1.766.51 1.04.766 2.17.766 3.396 0 1.67-.485 3.002-1.454 4-.97.995-2.216 1.493-3.735 1.493h-1.66zm-3.44 2.91h6.272c1.49 0 2.82-.364 3.994-1.09 1.173-.724 2.066-1.752 2.68-3.078.612-1.328.918-2.767.918-4.314 0-1.54-.264-2.93-.795-4.168-.53-1.237-1.208-2.21-2.036-2.916-.593-.503-1.364-.912-2.312-1.224-.947-.312-1.948-.468-3-.468h-5.72V-9.76zM294.725-9.76h3.408v-10.536c0-1.315.304-2.3.913-2.955.61-.655 1.437-.98 2.482-.98.67 0 1.264.13 1.783.393.52.263.935.69 1.248 1.286.31.593.467 1.345.467 2.254V-9.76h3.418v-11.032c0-2.105-.575-3.726-1.725-4.86-1.15-1.136-2.836-1.704-5.054-1.704-1.28 0-2.47.202-3.576.61-.587.216-1.076.503-1.467.856-.54.497-.992 1.13-1.353 1.9-.36.77-.542 1.807-.542 3.11v11.12zM325.13-22.077c-.242-.97-.546-1.742-.914-2.312-.595-.925-1.363-1.65-2.307-2.176-.946-.527-2.038-.79-3.278-.79-1.324 0-2.588.333-3.792.998-1.203.666-2.116 1.66-2.74 2.984-.626 1.323-.937 2.883-.937 4.68 0 1.873.318 3.527.954 4.963.634 1.435 1.557 2.512 2.77 3.23 1.21.718 2.484 1.078 3.824 1.078.986 0 1.95-.22 2.893-.655.944-.436 1.725-1.052 2.342-1.85.43-.556.77-1.293 1.026-2.21l-3.158-.902c-.225.933-.626 1.638-1.2 2.115-.576.478-1.266.717-2.07.717-1.205 0-2.14-.583-2.81-1.75-.67-1.165-1.004-2.687-1.004-4.566 0-1.188.154-2.23.463-3.125.31-.894.734-1.554 1.275-1.978.542-.426 1.13-.637 1.76-.637.948 0 1.794.342 2.54 1.026.525.475.94 1.158 1.24 2.053l3.124-.89zM326.675-9.76h13.087v-2.967H334.9v-14.29h-3.385v14.29h-4.84v2.966zM344.358-22.19c.57-.88 1.134-1.493 1.686-1.84.553-.345 1.206-.518 1.958-.518.902 0 1.606.223 2.11.672.503.446.756.975.756 1.584 0 .534-.2 1.004-.598 1.41-.407.406-1.313.796-2.72 1.174-1.918.503-3.29 1.12-4.118 1.85-1.03.917-1.545 2.05-1.545 3.405 0 1.45.515 2.652 1.546 3.604 1.03.952 2.445 1.428 4.24 1.428 1.024 0 1.937-.172 2.738-.514.802-.342 1.48-.78 2.036-1.314.362-.354.722-.838 1.084-1.454l-2.843-1.162c-.482.684-.974 1.184-1.478 1.5-.505.316-1.065.474-1.682.474-.76 0-1.367-.213-1.822-.638-.455-.425-.682-.938-.682-1.54 0-.48.188-.895.563-1.24.37-.346 1.295-.703 2.776-1.072 1.482-.368 2.604-.797 3.368-1.285.763-.49 1.335-1.124 1.715-1.906.38-.783.57-1.587.57-2.414 0-.873-.244-1.75-.734-2.628-.488-.88-1.213-1.557-2.176-2.03-.962-.474-2.067-.71-3.317-.71-1.18 0-2.205.197-3.074.59-.87.395-1.604.928-2.205 1.597-.39.428-.786 1.026-1.185 1.794l3.035 1.184zM366.73-22.19c.57-.88 1.133-1.493 1.685-1.84.553-.345 1.206-.518 1.957-.518.903 0 1.607.223 2.11.672.504.446.756.975.756 1.584 0 .534-.2 1.004-.597 1.41-.406.406-1.312.796-2.72 1.174-1.917.503-3.29 1.12-4.117 1.85-1.03.917-1.545 2.05-1.545 3.405 0 1.45.515 2.652 1.545 3.604 1.03.952 2.445 1.428 4.242 1.428 1.023 0 1.936-.172 2.736-.514.802-.342 1.48-.78 2.037-1.314.36-.354.722-.838 1.084-1.454l-2.842-1.162c-.482.684-.975 1.184-1.48 1.5-.503.316-1.062.474-1.68.474-.76 0-1.367-.213-1.822-.638-.455-.425-.68-.938-.68-1.54 0-.48.186-.895.562-1.24.37-.346 1.294-.703 2.775-1.072 1.482-.368 2.604-.797 3.368-1.285.764-.49 1.335-1.124 1.716-1.906.38-.783.57-1.587.57-2.414 0-.873-.245-1.75-.734-2.628-.49-.88-1.214-1.557-2.177-2.03-.963-.474-2.068-.71-3.317-.71-1.18 0-2.206.197-3.074.59-.87.395-1.605.928-2.206 1.597-.39.428-.786 1.026-1.184 1.794l3.035 1.184zM379.172-9.76h5.392l2.87-10.693 2.896 10.692h5.39V-27.02h-3.236v15.362l-4.16-15.362h-1.79l-4.16 15.362v-15.362h-3.202V-9.76zM405.27-14.43l-1.98-6.024h3.927l-1.948 6.023zm-1.81 4.67h3.6l5.62-17.257h-3.34l-1.31 4.05h-5.516l-1.307-4.05h-3.34L403.46-9.76zM418.298-12.772v-4.647h2.718c.994 0 1.84.282 2.54.847.458.376.688.898.688 1.567 0 .64-.257 1.172-.767 1.597-.512.425-1.333.638-2.46.638h-2.72zm-3.408 3.01h4.66c2.505 0 4.237-.186 5.196-.564.96-.375 1.704-.995 2.24-1.86.533-.865.8-1.857.8-2.978 0-1.03-.24-1.88-.722-2.554-.482-.673-1.316-1.25-2.504-1.732l3.103-7.567H424.3l-2.894 6.936h-3.108v-6.937h-3.408V-9.76zM429.572-9.76h13.086v-2.967h-4.86v-14.29h-3.387v14.29h-4.838v2.966zM170.43 82.234c.31-2.44 1.604-4.526 3.64-5.877 3.89-2.58 10.155-2.1 14.112 3.87l14.184 21.396c3.568 5.383 8.175 5.798 11.15 3.824 3.123-2.066 4.693-6.984.775-12.897l-18.565-28.01-.855.57-5.41-6.21c-4.53 1.732-9.49.578-11.922-3.093l-6.443-9.72 3-1.988-5.553-8.38c-.602-.9-.23-2.2.818-2.896 1.05-.7 2.39-.534 2.99.375l5.55 8.374 7.61-5.04-5.55-8.373c-.602-.908-.235-2.206.815-2.9 1.052-.698 2.39-.53 2.99.374l5.55 8.38 3.182-2.11 6.442 9.72c2.458 3.713 1.548 8.79-1.9 12.29l3.773 7.254-1.568 1.04 18.567 28.01c5.277 7.96 3.006 15.457-1.957 18.75-4.725 3.132-12.09 2.413-17.013-5.016l-14.18-21.394c-2.44-3.675-6.073-4.126-8.26-2.682-.702.468-1.586 1.352-1.786 2.895-.202 1.575.368 3.424 1.646 5.35l20.882 31.5-3.52 2.336-20.883-31.498c-1.848-2.792-2.644-5.632-2.31-8.224M397.054 105.506c.075 7.3 6.052 13.16 13.354 13.087 7.304-.073 13.165-6.054 13.09-13.35-.075-7.305-6.053-13.16-13.356-13.087-7.302.073-13.162 6.05-13.088 13.35M357.71 56.414c7.306.736 16.815 3.057 30.665 10.882 13.37 7.55 20.32 6.774 36.19 3.293 14.387-3.158 19.858 5.394 21.63 10.755 1.374 4.142 1.893 11.544 2.07 16.96l94.61.672c9.29-.094 3.84-4.014 13.45-4.113.17.002.358.012.533.023-.834-.46-1.426-1.305-1.438-2.327-.014-1.5 1.192-2.733 2.694-2.748 1.5-.013 2.732 1.193 2.747 2.694.013 1.066-.61 1.977-1.505 2.43 1.684.014 3.46-.02 5.28-.093-.87-.445-1.483-1.317-1.492-2.362-.016-1.497 1.188-2.727 2.693-2.744 1.5-.015 2.73 1.19 2.744 2.692.012.967-.515 1.787-1.273 2.276 1.5-.093 2.99-.204 4.427-.343-.916-.428-1.567-1.334-1.578-2.414-.015-1.502 1.19-2.732 2.693-2.746 1.503-.013 2.734 1.19 2.75 2.69.007.973-.526 1.79-1.29 2.283 4.816-.035 8.133.302 8.227 9.632.097 9.622-3.272 9.49-8.087 9.525.804.464 1.376 1.294 1.384 2.29.018 1.504-1.19 2.734-2.692 2.75-1.5.012-2.732-1.193-2.748-2.693-.01-1.118.658-2.086 1.62-2.512-1.515-.114-3.086-.202-4.688-.243.863.444 1.476 1.313 1.485 2.352.017 1.5-1.19 2.733-2.692 2.748-1.5.015-2.733-1.19-2.744-2.692-.016-1.07.614-1.985 1.51-2.438-1.773-.008-3.546.02-5.265.114.85.45 1.463 1.315 1.472 2.345.013 1.505-1.194 2.733-2.694 2.75-1.5.015-2.732-1.19-2.748-2.692-.01-.907.46-1.677 1.137-2.177-9.73.096-4.616-3.39-13.556-3.297l-94.85 2.748c-.097 5.3-.502 12.08-1.71 15.997-1.666 5.395-6.96 14.055-21.41 11.188-15.935-3.16-22.9-3.794-36.116 4.02-13.693 8.1-23.152 10.61-30.443 11.496-9.672 1.174-22.832-2.14-29.82-12.18-7.126-10.24-8.175-21.217-8.33-36.927-.16-15.703.667-26.7 7.584-37.083 6.786-10.182 19.877-13.754 29.575-12.776" fill="#231f20"/><path d="M396.96 105.46c0 7.376 5.983 13.356 13.36 13.356 7.38 0 13.363-5.98 13.363-13.356 0-7.378-5.982-13.36-13.363-13.36-7.377 0-13.36 5.982-13.36 13.36M171.693 76.046h-60.11v40.617h60.11V76.046z" fill="#fff"/><path d="M150.962 78.903c-9.664 0-17.502 7.837-17.502 17.498 0 9.66 7.838 17.5 17.502 17.5 9.663 0 17.5-7.837 17.502-17.5 0-9.66-7.84-17.497-17.502-17.497m-23.335 31.493c0-1.286-1.045-2.33-2.334-2.33h-7c-1.29 0-2.334 1.044-2.334 2.33v1.167c0 1.29 1.044 2.336 2.333 2.336h7c1.29 0 2.334-1.045 2.334-2.337v-1.167zm40.835 9.335h-3.5c0 1.29-1.044 2.334-2.333 2.334h-2.335c-1.29 0-2.334-1.045-2.334-2.333h-22.166c-2.335 0-2.335 5.832-4.668 5.832H118.29c-2.334 0-2.334-5.83-4.666-5.83h-3.5c-3.222 0-5.835-2.614-5.835-5.833V78.904c0-3.22 2.613-5.835 5.834-5.833h58.336c3.22 0 5.833 2.613 5.833 5.833V113.9c0 3.218-2.613 5.83-5.833 5.83" fill="#231f20"/><path d="M150.962 109.232c-7.087 0-12.834-5.746-12.834-12.832 0-7.084 5.747-12.832 12.834-12.832 7.086 0 12.834 5.748 12.834 12.832 0 7.086-5.748 12.832-12.834 12.832M278.442 130.22c-1.33 1.772-3.848 2.132-5.62.802l-17.22-12.915h13.38l8.657 6.494c1.774 1.332 2.13 3.845.802 5.62M293.533 82.886c.39.486.782.968 1.168 1.446h-22.853l-12.77-15.803s-10.313-12.768-6.832-22.604c27.538 19.94 37.85 32.705 41.288 36.96M246.808 95.88v3.72h-3.515v3.305h3.515v3.515h3.51v-3.515h3.52V99.6h-3.52v-3.72h-3.51zm52.125 5.27c0-1.634-1.327-2.962-2.963-2.962-1.635 0-2.963 1.328-2.963 2.96 0 1.638 1.33 2.965 2.963 2.965 1.636 0 2.963-1.327 2.963-2.964m9.846.07c0 7.1-5.78 12.877-12.88 12.877h-53.194c-7.1 0-12.876-5.777-12.876-12.877 0-7.098 5.776-12.873 12.876-12.873H295.9c7.1 0 12.88 5.775 12.88 12.873" fill="#231f20"/><path d="M93.024 62.4l-39.78-.037-.075 78.116 39.78.038.074-78.12z" fill="#fff"/><path d="M91.78 75.05c0-1.233-1.004-2.24-2.242-2.24H56.654c-1.24 0-2.24 1.007-2.24 2.24v61.676c0 1.24 1 2.24 2.24 2.24h32.884c1.238 0 2.243-1 2.243-2.24V75.05zM73.096 62.38c-2.15 0-3.894 1.743-3.894 3.893 0 2.15 1.745 3.888 3.895 3.888s3.892-1.74 3.892-3.888c0-2.15-1.743-3.893-3.892-3.893m16.443 80.326H56.654c-3.3 0-5.98-2.684-5.98-5.982v-71.01c0-3.307 2.68-5.98 5.98-5.98h32.884c3.303 0 5.983 2.673 5.983 5.98v71.01c0 3.298-2.68 5.982-5.982 5.982" fill="#231f20"/><path d="M453.567 138.75H143.5v55.064h310.067V138.75z" fill="#fff"/><path d="M236.818 178.65h-4.988v-8.426h4.988c1.868 0 3.438.52 4.738 1.57.824.68 1.226 1.588 1.228 2.816-.002 1.165-.442 2.09-1.374 2.872-.91.763-2.434 1.176-4.592 1.17" fill="#231f20"/><path d="M443.078 150.952h-5.915v3.64c-1.183-1.205-2.39-2.124-3.62-2.753-1.952-1.026-4.05-1.55-6.285-1.55h-.014c-2.31 0-4.522.577-6.62 1.702-2.128 1.143-3.853 2.953-5.174 5.402-1.35 2.464-2.002 5.797-2.002 9.978 0 4.364.683 7.886 2.098 10.57 1.39 2.67 3.326 4.655 5.774 5.93 2.43 1.265 5.04 1.9 7.8 1.9 2.534 0 4.764-.492 6.718-1.485 1.923-.98 3.496-2.332 4.684-4.04.77-1.11 1.41-2.617 1.927-4.53l.074-.273-5.804-1.983-.094.286c-.59 1.784-1.344 3.097-2.224 3.96-1.286 1.227-2.936 1.843-5.01 1.843-2.465 0-4.445-.81-6.026-2.44-1.54-1.58-2.363-4.556-2.363-8.93 0-5.243 1.343-8.86 3.873-10.47 1.438-.915 2.654-1.214 4.116-1.22 1.102.006 2.175.228 3.262.676 1.067.46 1.93 1.013 2.572 1.664.667.653 1.148 1.31 1.48 1.962.29.567.553 1.338.777 2.282h-8.7v5.636h14.695v-17.758zm-41.694 0h-7.01l-13.675 22.618v-22.618h-7.212v34.16h7.457l13.3-21.752v21.753h7.14v-34.16zm-41.86 0h-7.228v14.52h-12.042v-14.52H333.1v34.16h7.154v-13.247h12.042v13.248h7.23v-34.16zm-38.028 27.79h-9.45v-27.79h-7.188v27.79h-9.41v6.37h26.048v-6.37zm-44.933-12.597V150.95h-7.246v15.192l-9.524 18.527-.223.443h7.56l5.816-11.284 5.744 11.283h7.58l-9.707-18.97zM250.2 150.95h-7.204l-5.627 13.49h-5.54v-13.49h-7.232v34.16h9.365c4.89-.003 8.267-.355 10.214-1.12 1.918-.745 3.43-2.008 4.498-3.738 1.073-1.732 1.608-3.723 1.607-5.95 0-2.05-.484-3.774-1.464-5.14-.943-1.326-2.525-2.437-4.718-3.36l6.1-14.852zm-47.48 0h-6.837l-10.307 33.77-.12.39h7.066l6.768-22.336 6.862 22.337h6.962l-10.395-34.16zm-26.974 27.722h-15.908v-6.785h9.7v-5.587h-9.7v-8.958h15.907v-6.393H152.63v34.16h23.115v-6.438zm-42.197-46.588h330.624v72.357H133.55v-72.357zM213.53 355.132c0 2.17-1.79 3.583-4.338 3.583h-2.232v-7.48c.377-.032.88-.063 2.327-.063 2.67 0 4.243 1.51 4.243 3.96m-12.48-10.75h2.357v14.333h-2.358v3.175h8.33c4.433 0 7.83-2.545 7.83-6.758 0-4.746-3.365-7.07-8.238-7.07-.975 0-1.572 0-2.012.03v-3.71h2.578v-3.174h-8.49v3.175zM237.143 351.55c0 4.305-2.924 7.417-6.916 7.417-4.025 0-6.95-3.08-6.95-7.418 0-4.307 2.925-7.418 6.95-7.418 3.992 0 6.916 3.08 6.916 7.417m-17.543 0c0 6.065 4.4 10.718 10.69 10.718 6.256 0 10.532-4.684 10.532-10.72 0-6.066-4.402-10.717-10.69-10.717-6.256 0-10.532 4.685-10.532 10.72M244.094 358.716h-2.2v3.174h8.802v-3.174h-2.735l3.365-10.876 5.125 12.04h1.887l5.124-12.04 3.145 10.876h-2.83v3.174h8.803v-3.174h-2.2l-5.565-17.728h-1.98l-5.534 12.73-5.566-12.73h-1.98l-5.66 17.728zM274.467 344.383h2.358v14.332h-2.358v3.175h15.436v-5.91h-3.394v2.767h-6.132v-5.532h6.256v-3.017h-6.256v-5.847h6.162v2.768h3.396v-5.91h-15.47v3.175zM305.09 355.51c0 2.168-1.792 3.206-4.653 3.206h-1.917v-6.633c.377-.03.88-.062 2.012-.062 2.672 0 4.558 1.32 4.558 3.49m-12.48-11.127h2.357v14.333h-2.358v3.174h8.016c4.748 0 8.143-2.043 8.143-6.255 0-2.67-1.636-4.714-3.9-5.626l3.175-5.627h2.358v-3.174h-4.78l-4.148 7.856c-.44-.03-.85-.063-1.26-.063-.657 0-1.256 0-1.695.032v-4.652h2.578v-3.174h-8.49v3.173zM312.103 344.383h2.358v14.332h-2.357v3.175h15.437v-5.91h-3.395v2.767h-6.13v-5.532h6.255v-3.017h-6.256v-5.847h6.162v2.768h3.396v-5.91h-15.47v3.175zM338.2 344.383c5.343 0 8.11 2.892 8.11 7.323 0 4.527-3.206 7.01-8.362 7.01h-1.792v-14.333h2.043zm-7.956 0h2.36v14.332h-2.36v3.175h7.83c7.482 0 11.915-3.897 11.915-10.152 0-6.318-4.182-10.53-12.294-10.53h-7.452v3.175zM368.195 344.32c2.45 0 4.087 1.006 4.087 2.985 0 1.918-1.51 2.987-4.182 2.987h-2.703v-5.972h2.798zm-.378 8.8c2.483 0 3.867 1.133 3.867 2.924 0 1.76-1.447 2.734-3.96 2.734h-2.327v-5.657h2.42zm-8.3-8.737h2.358v14.332h-2.358v3.175h8.27c5.06 0 7.544-2.326 7.544-5.437 0-2.39-1.477-3.93-3.52-4.62 2.578-.755 4.118-2.264 4.118-4.84 0-3.427-2.766-5.785-7.796-5.785h-8.615v3.175zM381.904 344.383h2.608v4.715l-5.878 9.617h-2.075v3.175h7.828v-3.175h-1.824l3.803-6.632 3.773 6.632h-1.95v3.175h7.83v-3.175h-2.075l-5.88-9.617v-4.715h2.61v-3.175h-8.77v3.175z" fill="#231f20"/></g></g></svg>